<svg width="44" height="44" viewBox="0 0 44 44" fill="none" xmlns="http://www.w3.org/2000/svg">
    <circle cx="22" cy="22" r="21.5" stroke="#6753FF"/>
    <path opacity="0.4"
          d="M30.3333 19.1001V15.3167C30.3333 14.1417 29.8 13.6667 28.475 13.6667H25.1083C23.7833 13.6667 23.25 14.1417 23.25 15.3167V19.0917C23.25 20.2751 23.7833 20.7417 25.1083 20.7417H28.475C29.8 20.7501 30.3333 20.2751 30.3333 19.1001Z"
          fill="#6753FF"/>
    <path d="M30.3333 28.475V25.1083C30.3333 23.7833 29.8 23.25 28.475 23.25H25.1083C23.7833 23.25 23.25 23.7833 23.25 25.1083V28.475C23.25 29.8 23.7833 30.3333 25.1083 30.3333H28.475C29.8 30.3333 30.3333 29.8 30.3333 28.475Z"
          fill="#6753FF"/>
    <path d="M20.7503 19.1001V15.3167C20.7503 14.1417 20.217 13.6667 18.892 13.6667H15.5253C14.2003 13.6667 13.667 14.1417 13.667 15.3167V19.0917C13.667 20.2751 14.2003 20.7417 15.5253 20.7417H18.892C20.217 20.7501 20.7503 20.2751 20.7503 19.1001Z"
          fill="#6753FF"/>
    <path opacity="0.4"
          d="M20.7503 28.475V25.1083C20.7503 23.7833 20.217 23.25 18.892 23.25H15.5253C14.2003 23.25 13.667 23.7833 13.667 25.1083V28.475C13.667 29.8 14.2003 30.3333 15.5253 30.3333H18.892C20.217 30.3333 20.7503 29.8 20.7503 28.475Z"
          fill="#6753FF"/>
</svg>
