<svg width="22" height="22" viewBox="0 0 22 22" fill="none" xmlns="http://www.w3.org/2000/svg">
<path d="M19.3325 6.39839C18.5533 5.53673 17.2516 5.10589 15.3633 5.10589H15.1433V5.06923C15.1433 3.52923 15.1433 1.62256 11.6966 1.62256H10.3033C6.85662 1.62256 6.85662 3.53839 6.85662 5.06923V5.11506H6.63662C4.73912 5.11506 3.44662 5.54589 2.66745 6.40756C1.75995 7.41589 1.78745 8.77256 1.87912 9.69839L1.88829 9.76256L1.97995 10.7251C1.98912 10.7342 2.00745 10.7526 2.02579 10.7617C2.32829 10.9634 2.63995 11.1651 2.96995 11.3484C3.09829 11.4309 3.23579 11.5042 3.37329 11.5776C4.94079 12.4392 6.66412 13.0167 8.41495 13.3009C8.49745 14.1626 8.87329 15.1709 10.8808 15.1709C12.8883 15.1709 13.2825 14.1717 13.3466 13.2826C15.2166 12.9801 17.0225 12.3292 18.6541 11.3759C18.7091 11.3484 18.7458 11.3209 18.7916 11.2934C19.2133 11.0551 19.6075 10.7984 19.9925 10.5142C20.0108 10.5051 20.0291 10.4867 20.0383 10.4684L20.075 10.1384L20.1208 9.70756C20.13 9.65256 20.13 9.60672 20.1391 9.54256C20.2125 8.61672 20.1941 7.35173 19.3325 6.39839ZM11.9991 12.6776C11.9991 13.6492 11.9991 13.7959 10.8716 13.7959C9.74412 13.7959 9.74412 13.6217 9.74412 12.6867V11.5317H11.9991V12.6776ZM8.16745 5.10589V5.06923C8.16745 3.51089 8.16745 2.93339 10.3033 2.93339H11.6966C13.8325 2.93339 13.8325 3.52006 13.8325 5.06923V5.11506H8.16745V5.10589Z" fill="white"/>
<path opacity="0.4" d="M18.7916 11.275C18.7458 11.3025 18.7 11.33 18.6541 11.3575C17.0225 12.3108 15.2166 12.9525 13.3466 13.2641C13.2733 14.1441 12.8883 15.1525 10.8808 15.1525C8.87331 15.1525 8.48831 14.1533 8.41498 13.2825C6.66415 13.0075 4.94081 12.43 3.37331 11.5591C3.23581 11.4858 3.09831 11.4125 2.96998 11.33C2.63998 11.1466 2.32831 10.945 2.02581 10.7433C2.00748 10.7341 1.98915 10.7158 1.97998 10.7066L2.53915 16.6741C2.73165 18.4983 3.48331 20.3774 7.51665 20.3774H14.5016C18.535 20.3774 19.2866 18.4983 19.4791 16.665L20.0566 10.45C20.0475 10.4683 20.0291 10.4866 20.0108 10.4958C19.6166 10.78 19.2133 11.0458 18.7916 11.275Z" fill="white"/>
</svg>
