<svg width="44" height="44" viewBox="0 0 44 44" fill="none" xmlns="http://www.w3.org/2000/svg">
    <circle cx="22" cy="22" r="21.5" stroke="#E6E5ED"/>
    <g opacity="0.6">
        <path opacity="0.4"
              d="M24.4997 15.3333H19.4997C17.1997 15.3333 15.333 17.1999 15.333 19.4999V24.4999C15.333 26.7999 17.1997 28.6666 19.4997 28.6666H24.4997C26.7997 28.6666 28.6663 26.7999 28.6663 24.4999V19.4999C28.6663 17.1999 26.7997 15.3333 24.4997 15.3333ZM26.383 23.8833C26.383 25.2666 25.2663 26.3833 23.883 26.3833H20.1163C18.733 26.3833 17.6163 25.2666 17.6163 23.8833V20.1166C17.6163 18.7333 18.733 17.6166 20.1163 17.6166H23.8747C25.258 17.6166 26.3747 18.7333 26.3747 20.1166V23.8833H26.383Z"
              fill="#5D5B70"/>
        <path d="M19.5498 14.2917V15.3334H19.4998C19.0831 15.3334 18.6831 15.3917 18.2998 15.5084V14.2917C18.2998 13.9501 18.5748 13.6667 18.9248 13.6667C19.2665 13.6667 19.5498 13.9501 19.5498 14.2917Z"
              fill="#5D5B70"/>
        <path d="M22.625 14.2917V15.3334H21.375V14.2917C21.375 13.9501 21.6583 13.6667 22 13.6667C22.3417 13.6667 22.625 13.9501 22.625 14.2917Z"
              fill="#5D5B70"/>
        <path d="M25.708 14.2917V15.5084C25.3247 15.3917 24.9163 15.3334 24.4997 15.3334H24.458V14.2917C24.458 13.9501 24.7413 13.6667 25.083 13.6667C25.4247 13.6667 25.708 13.9501 25.708 14.2917Z"
              fill="#5D5B70"/>
        <path d="M30.3329 18.9167C30.3329 19.2667 30.0579 19.5417 29.7079 19.5417H28.6662V19.5001C28.6662 19.0834 28.6079 18.6751 28.4912 18.2917H29.7079C30.0579 18.2917 30.3329 18.5751 30.3329 18.9167Z"
              fill="#5D5B70"/>
        <path d="M30.3337 22C30.3337 22.3417 30.0587 22.625 29.7087 22.625H28.667V21.375H29.7087C30.0587 21.375 30.3337 21.65 30.3337 22Z"
              fill="#5D5B70"/>
        <path d="M30.3329 25.0833C30.3329 25.4249 30.0579 25.7083 29.7079 25.7083H28.4912C28.6079 25.3249 28.6662 24.9166 28.6662 24.4999V24.4583H29.7079C30.0579 24.4583 30.3329 24.7333 30.3329 25.0833Z"
              fill="#5D5B70"/>
        <path d="M25.708 28.4917V29.7084C25.708 30.05 25.4247 30.3334 25.083 30.3334C24.7413 30.3334 24.458 30.05 24.458 29.7084V28.6667H24.4997C24.9163 28.6667 25.3247 28.6084 25.708 28.4917Z"
              fill="#5D5B70"/>
        <path d="M22.6338 28.6667V29.7084C22.6338 30.0501 22.3505 30.3334 22.0088 30.3334C21.6588 30.3334 21.3838 30.0501 21.3838 29.7084V28.6667H22.6338Z"
              fill="#5D5B70"/>
        <path d="M19.5498 28.6667V29.7084C19.5498 30.05 19.2665 30.3334 18.9248 30.3334C18.5748 30.3334 18.2998 30.05 18.2998 29.7084V28.4917C18.6831 28.6084 19.0831 28.6667 19.4998 28.6667H19.5498Z"
              fill="#5D5B70"/>
        <path d="M15.5087 18.2917C15.392 18.6751 15.3337 19.0834 15.3337 19.5001V19.5417H14.292C13.9503 19.5417 13.667 19.2667 13.667 18.9167C13.667 18.5751 13.9503 18.2917 14.292 18.2917H15.5087V18.2917Z"
              fill="#5D5B70"/>
        <path d="M15.3337 21.375V22.625H14.292C13.9503 22.625 13.667 22.3417 13.667 22C13.667 21.65 13.9503 21.375 14.292 21.375H15.3337Z"
              fill="#5D5B70"/>
        <path d="M15.5087 25.7083H14.292C13.9503 25.7083 13.667 25.4249 13.667 25.0833C13.667 24.7333 13.9503 24.4583 14.292 24.4583H15.3337V24.4999C15.3337 24.9166 15.392 25.3249 15.5087 25.7083Z"
              fill="#5D5B70"/>
        <path d="M26.3829 20.1167V23.875C26.3829 25.2584 25.2662 26.375 23.8829 26.375H20.1162C18.7329 26.375 17.6162 25.2584 17.6162 23.875V20.1167C17.6162 18.7334 18.7329 17.6167 20.1162 17.6167H23.8745C25.2579 17.6167 26.3829 18.7417 26.3829 20.1167Z"
              fill="#5D5B70"/>
    </g>
</svg>
