<svg width="26" height="18" viewBox="0 0 26 18" fill="none" xmlns="http://www.w3.org/2000/svg">
<path d="M1.11839e-07 1.29225C1.41649e-07 0.951254 0.135609 0.624227 0.376995 0.383108C0.618382 0.14199 0.945773 0.00653233 1.28714 0.00653236L11.5843 0.00653326C11.7633 -0.0114113 11.944 0.0083138 12.1149 0.0644347C12.2858 0.120556 12.443 0.211825 12.5764 0.332361C12.7097 0.452897 12.8164 0.600023 12.8893 0.764247C12.9623 0.92847 13 1.10615 13 1.28582C13 1.46549 12.9623 1.64317 12.8893 1.80739C12.8164 1.97161 12.7097 2.11874 12.5764 2.23928C12.443 2.35981 12.2858 2.45108 12.1149 2.50721C11.944 2.56333 11.7633 2.58305 11.5843 2.5651L1.28714 2.5651C0.947991 2.56512 0.622538 2.43143 0.381517 2.19308C0.140498 1.95474 0.0033923 1.63101 1.11839e-07 1.29225Z" fill="#33313E"/>
<path d="M2.01919e-06 9.00636C2.049e-06 8.66536 0.136284 8.33834 0.37887 8.09722C0.621456 7.8561 0.950474 7.72064 1.29354 7.72064L24.5773 7.72064C24.7571 7.7027 24.9388 7.72242 25.1105 7.77854C25.2822 7.83466 25.4402 7.92594 25.5743 8.04647C25.7083 8.16701 25.8155 8.31413 25.8888 8.47836C25.9621 8.64258 26 8.82026 26 8.99993C26 9.1796 25.9621 9.35728 25.8888 9.5215C25.8155 9.68573 25.7083 9.83285 25.5743 9.95339C25.4402 10.0739 25.2822 10.1652 25.1105 10.2213C24.9388 10.2774 24.7571 10.2972 24.5773 10.2792L1.29354 10.2792C0.952703 10.2792 0.625631 10.1455 0.383413 9.90719C0.141197 9.66885 0.00341042 9.34512 2.01919e-06 9.00636Z" fill="#33313E"/>
<path d="M1.43003 15.435C1.24927 15.4171 1.06671 15.4368 0.894135 15.4929C0.721556 15.549 0.562788 15.6403 0.428066 15.7608C0.293345 15.8814 0.185665 16.0285 0.111967 16.1927C0.0382711 16.3569 0.000194678 16.5346 0.000194662 16.7143C0.000194646 16.894 0.038271 17.0716 0.111967 17.2359C0.185665 17.4001 0.293345 17.5472 0.428066 17.6677C0.562788 17.7883 0.721556 17.8795 0.894135 17.9357C1.06671 17.9918 1.24927 18.0115 1.43003 17.9936L17.03 17.9936C17.3507 17.9617 17.648 17.8132 17.8642 17.5768C18.0805 17.3404 18.2002 17.033 18.2002 16.7143C18.2002 16.3955 18.0805 16.0881 17.8642 15.8517C17.648 15.6154 17.3507 15.4668 17.03 15.435L1.43003 15.435Z" fill="#33313E"/>
</svg>
