<svg width="44" height="44" viewBox="0 0 44 44" fill="none" xmlns="http://www.w3.org/2000/svg">
    <circle cx="22" cy="22" r="21.5" stroke="#E6E5ED"/>
    <g opacity="0.6">
        <path d="M27.8333 24.5C25.9917 24.5 24.5 25.9917 24.5 27.8333C24.5 28.4583 24.675 29.05 24.9833 29.55C25.5583 30.5167 26.6167 31.1667 27.8333 31.1667C29.05 31.1667 30.1083 30.5167 30.6833 29.55C30.9917 29.05 31.1667 28.4583 31.1667 27.8333C31.1667 25.9917 29.675 24.5 27.8333 24.5ZM29.5583 27.475L27.7833 29.1167C27.6667 29.225 27.5083 29.2833 27.3583 29.2833C27.2 29.2833 27.0417 29.225 26.9167 29.1L26.0916 28.275C25.85 28.0333 25.85 27.6333 26.0916 27.3917C26.3333 27.15 26.7333 27.15 26.975 27.3917L27.375 27.7917L28.7083 26.5583C28.9583 26.325 29.3583 26.3417 29.5917 26.5917C29.825 26.8417 29.8083 27.2333 29.5583 27.475Z"
              fill="#5D5B70"/>
        <path d="M30.3337 18.2833V19.4999H13.667V18.2833C13.667 16.3749 15.217 14.8333 17.1253 14.8333H26.8753C28.7836 14.8333 30.3337 16.3749 30.3337 18.2833Z"
              fill="#5D5B70"/>
        <path opacity="0.4"
              d="M13.667 19.5V25.7167C13.667 27.625 15.2087 29.1667 17.117 29.1667H22.3337C22.817 29.1667 23.2337 28.7583 23.192 28.275C23.0753 27 23.4837 25.6167 24.617 24.5167C25.0837 24.0583 25.6587 23.7083 26.2837 23.5083C27.3253 23.175 28.3336 23.2167 29.2253 23.5167C29.767 23.7 30.3337 23.3083 30.3337 22.7333V19.5H13.667ZM18.667 26.375H17.0003C16.6587 26.375 16.3753 26.0917 16.3753 25.75C16.3753 25.4083 16.6587 25.125 17.0003 25.125H18.667C19.0087 25.125 19.292 25.4083 19.292 25.75C19.292 26.0917 19.0087 26.375 18.667 26.375Z"
              fill="#5D5B70"/>
        <path d="M19.2917 25.75C19.2917 26.0917 19.0083 26.375 18.6667 26.375H17C16.6583 26.375 16.375 26.0917 16.375 25.75C16.375 25.4083 16.6583 25.125 17 25.125H18.6667C19.0083 25.125 19.2917 25.4083 19.2917 25.75Z"
              fill="#5D5B70"/>
    </g>
</svg>
