<svg width="22" height="22" viewBox="0 0 22 22" fill="none" xmlns="http://www.w3.org/2000/svg">
<path d="M18.3334 17.6549H10.0192C9.60675 17.6549 9.26758 17.3158 9.26758 16.9033C9.26758 16.4908 9.60675 16.1516 10.0192 16.1516H18.3334C18.7459 16.1516 19.0851 16.4908 19.0851 16.9033C19.0851 17.3249 18.7459 17.6549 18.3334 17.6549Z" fill="#E6E5ED"/>
<path d="M18.3334 11.8891H10.0192C9.60675 11.8891 9.26758 11.5499 9.26758 11.1374C9.26758 10.7249 9.60675 10.3857 10.0192 10.3857H18.3334C18.7459 10.3857 19.0851 10.7249 19.0851 11.1374C19.0851 11.5499 18.7459 11.8891 18.3334 11.8891Z" fill="#E6E5ED"/>
<path d="M18.3334 6.11417H10.0192C9.60675 6.11417 9.26758 5.77501 9.26758 5.36251C9.26758 4.95001 9.60675 4.61084 10.0192 4.61084H18.3334C18.7459 4.61084 19.0851 4.95001 19.0851 5.36251C19.0851 5.77501 18.7459 6.11417 18.3334 6.11417Z" fill="#E6E5ED"/>
<path opacity="0.4" d="M4.50087 7.36092C4.29921 7.36092 4.10671 7.27842 3.96921 7.14092L3.13504 6.30676C2.84171 6.01342 2.84171 5.53676 3.13504 5.24342C3.42837 4.95009 3.90504 4.95009 4.19837 5.24342L4.50087 5.54592L6.46254 3.58426C6.75587 3.29092 7.23254 3.29092 7.52587 3.58426C7.81921 3.87759 7.81921 4.35426 7.52587 4.64759L5.03254 7.14092C4.88587 7.27842 4.70254 7.36092 4.50087 7.36092Z" fill="#E6E5ED"/>
<path opacity="0.4" d="M4.50087 13.1358C4.30837 13.1358 4.11587 13.0625 3.96921 12.9158L3.13504 12.0817C2.84171 11.7883 2.84171 11.3117 3.13504 11.0183C3.42837 10.725 3.90504 10.725 4.19837 11.0183L4.50087 11.3208L6.46254 9.35916C6.75587 9.06583 7.23254 9.06583 7.52587 9.35916C7.81921 9.65249 7.81921 10.1292 7.52587 10.4225L5.03254 12.9158C4.88587 13.0625 4.69337 13.1358 4.50087 13.1358Z" fill="#E6E5ED"/>
<path opacity="0.4" d="M4.50087 18.6358C4.30837 18.6358 4.11587 18.5625 3.96921 18.4158L3.13504 17.5817C2.84171 17.2883 2.84171 16.8117 3.13504 16.5183C3.42837 16.225 3.90504 16.225 4.19837 16.5183L4.50087 16.8208L6.46254 14.8592C6.75587 14.5658 7.23254 14.5658 7.52587 14.8592C7.81921 15.1525 7.81921 15.6292 7.52587 15.9225L5.03254 18.4158C4.88587 18.5625 4.69337 18.6358 4.50087 18.6358Z" fill="#E6E5ED"/>
</svg>
