<?xml version="1.0" encoding="utf-8"?>
<!-- Generator: Adobe Illustrator 27.2.0, SVG Export Plug-In . SVG Version: 6.00 Build 0)  -->
<svg version="1.1" id="Layer_1" xmlns="http://www.w3.org/2000/svg" xmlns:xlink="http://www.w3.org/1999/xlink" x="0px" y="0px"
	 viewBox="0 0 48 48" style="enable-background:new 0 0 48 48;" xml:space="preserve">
<style type="text/css">
	.st0{fill:none;}
	.st1{fill:#FFFFFF;}
</style>
<path class="st0" d="M48,48H0L0,0l48,0V48z"/>
<path class="st1" d="M0.6,21.7h18.7v4.7H0.6V21.7z M0.6,17h18.7v-4.7H0.6V17z M19.3,31H0.6v4.7h18.7V31z M28.7,12.3h14
	c2.6,0,4.7,2.1,4.7,4.7v14c0,2.6-2.1,4.7-4.7,4.7h-14c-2.6,0-4.7-2.1-4.7-4.7V17C24,14.4,26.1,12.3,28.7,12.3z M43.9,31l-4.1-5.3
	l-2.9,3.5L32.8,24l-5.3,7H43.9z"/>
</svg>
