<svg width="22" height="22" viewBox="0 0 22 22" fill="none" xmlns="http://www.w3.org/2000/svg">
<path opacity="0.8" d="M11.8249 2.30992L11.7974 2.37409L9.1391 8.54325H6.5266C5.90327 8.54325 5.3166 8.66242 4.7666 8.90075L6.37077 5.06909L6.40743 4.98659L6.46244 4.83992C6.48994 4.77575 6.50827 4.72075 6.53577 4.67492C7.7366 1.89742 9.09327 1.26492 11.8249 2.30992Z" fill="#E6E5ED"/>
<path d="M16.7658 8.72673C16.3533 8.60756 15.9225 8.54339 15.4733 8.54339H9.13916L11.7975 2.37423L11.825 2.31006C11.9533 2.35589 12.0908 2.42006 12.2283 2.46589L14.2542 3.31839C15.3817 3.78589 16.17 4.27173 16.6558 4.85839C16.7383 4.96839 16.8117 5.06923 16.885 5.18839C16.9675 5.31673 17.0317 5.44506 17.0683 5.58256C17.105 5.66506 17.1325 5.73839 17.1508 5.82089C17.3892 6.60006 17.2425 7.54423 16.7658 8.72673Z" fill="#E6E5ED"/>
<path opacity="0.4" d="M19.9466 13.0165V14.804C19.9466 14.9874 19.9374 15.1707 19.9282 15.3449C19.7541 18.5532 17.9666 20.1665 14.5749 20.1665H7.42489C7.19572 20.1665 6.98489 20.1482 6.77406 20.1207C3.85906 19.9282 2.30072 18.3699 2.09906 15.4549C2.07156 15.2349 2.05322 15.024 2.05322 14.804V13.0165C2.05322 11.174 3.17156 9.58821 4.76656 8.90071C5.31656 8.66238 5.90322 8.54321 6.52656 8.54321H15.4732C15.9224 8.54321 16.3532 8.60738 16.7657 8.72655C18.5991 9.28571 19.9466 10.9907 19.9466 13.0165Z" fill="#E6E5ED"/>
<path opacity="0.6" d="M6.37072 5.06909L4.76656 8.90076C3.17156 9.58826 2.05322 11.1741 2.05322 13.0166V10.3308C2.05322 7.72743 3.90489 5.55493 6.37072 5.06909Z" fill="#E6E5ED"/>
<path opacity="0.6" d="M19.9465 10.3309V13.0167C19.9465 10.9909 18.599 9.28585 16.7656 8.72669C17.2423 7.54419 17.389 6.60002 17.1506 5.82085C17.1323 5.73835 17.1048 5.66502 17.0681 5.58252C18.7823 6.47169 19.9465 8.27752 19.9465 10.3309Z" fill="#E6E5ED"/>
<path d="M13.2918 15.3542H8.7085C8.33266 15.3542 8.021 15.0426 8.021 14.6667C8.021 14.2909 8.33266 13.9792 8.7085 13.9792H13.2918C13.6677 13.9792 13.9793 14.2909 13.9793 14.6667C13.9793 15.0426 13.6677 15.3542 13.2918 15.3542Z" fill="#E6E5ED"/>
</svg>
