<svg width="238" height="48" viewBox="0 0 238 48" fill="none" xmlns="http://www.w3.org/2000/svg">
<path d="M64.3746 15.3569H66.9619L74.2017 31.7405H70.7835L69.2169 27.9917H61.9297L60.4106 31.7405H57.0637L64.3746 15.3569ZM68.1725 25.4925L65.5852 18.828L62.9504 25.4925H68.1725Z" fill="white"/>
<path d="M77.4097 15.3569H80.8516L85.4327 27.7372L90.1562 15.3569H93.3849L86.5959 31.7405H84.0087L77.4097 15.3569Z" fill="white"/>
<path d="M104.073 15.3569H106.661L113.9 31.7405H110.482L108.916 27.9917H101.629L100.109 31.7405H96.7627L104.073 15.3569ZM107.871 25.4925L105.284 18.828L102.649 25.4925H107.871Z" fill="white"/>
<path d="M120.516 15.3569H123.507V29.1024H130.651V31.7405H120.516V15.3569Z" fill="white"/>
<path d="M143.007 15.3569H145.595L152.834 31.7405H149.416L147.85 27.9917H140.562L139.044 31.7405H135.697L143.007 15.3569ZM146.805 25.4925L144.218 18.828L141.583 25.4925H146.805Z" fill="white"/>
<path d="M159.45 15.3569H163.414L171.555 27.5289H171.603V15.3569H174.593V31.7405H170.796L162.488 19.1751H162.441V31.7405H159.45V15.3569Z" fill="white"/>
<path d="M194.625 19.1978C194.008 18.5499 193.407 18.1179 192.821 17.902C192.252 17.686 191.674 17.578 191.089 17.578C190.218 17.578 189.427 17.7323 188.715 18.0408C188.019 18.3339 187.417 18.7504 186.911 19.2904C186.405 19.8149 186.009 20.432 185.724 21.1416C185.455 21.8513 185.32 22.6149 185.32 23.4326C185.32 24.3119 185.455 25.1218 185.724 25.8623C186.009 26.6028 186.405 27.243 186.911 27.783C187.417 28.3229 188.019 28.7472 188.715 29.0557C189.427 29.3643 190.218 29.5185 191.089 29.5185C191.769 29.5185 192.425 29.3643 193.059 29.0557C193.707 28.7317 194.308 28.2226 194.863 27.5284L197.331 29.2409C196.571 30.259 195.646 30.9995 194.554 31.4624C193.462 31.9252 192.299 32.1565 191.065 32.1565C189.767 32.1565 188.572 31.956 187.481 31.5549C186.405 31.1384 185.471 30.5598 184.68 29.8193C183.904 29.0634 183.294 28.1609 182.852 27.1119C182.408 26.0629 182.187 24.8981 182.187 23.6176C182.187 22.3064 182.408 21.1185 182.852 20.054C183.294 18.9742 183.904 18.0562 184.68 17.3003C185.471 16.5444 186.405 15.9659 187.481 15.5647C188.572 15.1482 189.767 14.9399 191.065 14.9399C192.204 14.9399 193.256 15.1405 194.222 15.5416C195.203 15.9273 196.112 16.5907 196.951 17.5317L194.625 19.1978Z" fill="white"/>
<path d="M204.086 15.3569H207.076V21.8826H214.933V15.3569H217.924V31.7405H214.933V24.5206H207.076V31.7405H204.086V15.3569Z" fill="white"/>
<path d="M226.427 15.3569H237.56V17.995H229.418V22.0214H237.133V24.6594H229.418V29.1024H237.987V31.7405H226.427V15.3569Z" fill="white"/>
<path fill-rule="evenodd" clip-rule="evenodd" d="M24.1055 47.0342C37.4186 47.0342 48.211 36.5129 48.211 23.5342C48.211 10.5555 37.4186 0.0341797 24.1055 0.0341797C10.7924 0.0341797 0 10.5555 0 23.5342C0 36.5129 10.7924 47.0342 24.1055 47.0342ZM16.8219 34.1807H11.167C9.82623 34.1807 9.15582 34.1807 8.75434 33.9276C8.32044 33.6541 8.04667 33.195 8.01768 32.6924C7.99078 32.2273 8.32282 31.6602 8.9869 30.5261L8.9872 30.5256L21.3683 9.38006C22.0422 8.2291 22.3791 7.65363 22.8079 7.4394C23.271 7.20798 23.8202 7.20758 24.2837 7.43839C24.7128 7.65196 25.0506 8.227 25.7261 9.37694L28.5817 14.2373L28.5817 14.2375C29.073 15.0736 29.3186 15.4917 29.4267 15.9328C29.5442 16.4131 29.5445 16.9134 29.4273 17.3936C29.3197 17.8348 29.0744 18.2533 28.5838 19.0899L21.18 31.7166C20.6824 32.5655 20.4335 32.99 20.0925 33.3072C19.7213 33.6525 19.2713 33.9071 18.7793 34.0498C18.3273 34.1807 17.8255 34.1807 16.8219 34.1807ZM36.997 34.1807H30.4407C29.0878 34.1807 28.4113 34.1807 28.0086 33.9254C27.5734 33.6495 27.3005 33.187 27.2747 32.682C27.2509 32.2146 27.5914 31.6451 28.2723 30.5064L31.545 25.0326C32.2173 23.9082 32.5535 23.346 32.9791 23.1354C33.4391 22.9079 33.9829 22.9075 34.4433 23.1344C34.8693 23.3443 35.2062 23.906 35.88 25.0293L35.8802 25.0297L39.1637 30.5033C39.8472 31.6428 40.189 32.2126 40.1656 32.6804C40.1404 33.1858 39.8676 33.6488 39.4322 33.9251C39.0294 34.1807 38.352 34.1807 36.997 34.1807Z" fill="white"/>
</svg>
