<?xml version="1.0" encoding="utf-8"?>
<!-- Generator: Adobe Illustrator 26.2.1, SVG Export Plug-In . SVG Version: 6.00 Build 0)  -->
<svg version="1.1" id="Calque_1" xmlns="http://www.w3.org/2000/svg" xmlns:xlink="http://www.w3.org/1999/xlink" x="0px" y="0px"
	 viewBox="0 0 216.5 45" style="enable-background:new 0 0 216.5 45;" xml:space="preserve">
<style type="text/css">
	.st0{fill:url(#SVGID_1_);}
	.st1{fill:url(#SVGID_00000124855763151602374490000014494429339423100848_);}
	.st2{fill:url(#SVGID_00000088100012150372980470000016108653054506603677_);}
	.st3{fill:#120641;}
</style>
<g>
	
		<linearGradient id="SVGID_1_" gradientUnits="userSpaceOnUse" x1="200.6836" y1="1131.4373" x2="179.4248" y2="1094.6162" gradientTransform="matrix(1 0 0 1 -172.5 -1090.6143)">
		<stop  offset="0" style="stop-color:#CD45FF"/>
		<stop  offset="1" style="stop-color:#6753FF"/>
	</linearGradient>
	<path class="st0" d="M0,8v33l5.3-1.3v5.2l27.6-6.8V0L0,8z M29.9,35.7L8.3,41v-2.1l19.3-4.8l0,0h0.1l0-27.2L5.3,12.5v24.1L3,37.1
		V10.4l26.9-6.6V35.7L29.9,35.7z M8.3,14.7l16.4-4v21.1l-16.4,4C8.3,35.8,8.3,14.7,8.3,14.7z"/>
	
		<linearGradient id="SVGID_00000070831543964614926820000014799608686264952999_" gradientUnits="userSpaceOnUse" x1="171.7685" y1="1126.2142" x2="204.71" y2="1126.2142" gradientTransform="matrix(1 0 0 1 -172.5 -1090.6143)">
		<stop  offset="0" style="stop-color:#CD45FF"/>
		<stop  offset="0.716" style="stop-color:#CD45FF;stop-opacity:0"/>
	</linearGradient>
	<path style="fill:url(#SVGID_00000070831543964614926820000014799608686264952999_);" d="M8.3,35.7v3.1L22,35.5v-3.1L8.3,35.7z"/>
	
		<linearGradient id="SVGID_00000102534254929734357550000001722148899918332601_" gradientUnits="userSpaceOnUse" x1="193.6027" y1="1135.4829" x2="175.6175" y2="1104.3318" gradientTransform="matrix(1 0 0 1 -172.5 -1090.6143)">
		<stop  offset="0" style="stop-color:#CD45FF;stop-opacity:0"/>
		<stop  offset="0.266" style="stop-color:#6753FF"/>
		<stop  offset="0.654" style="stop-color:#6753FF"/>
		<stop  offset="1" style="stop-color:#CD45FF;stop-opacity:0"/>
	</linearGradient>
	<path style="fill:url(#SVGID_00000102534254929734357550000001722148899918332601_);" d="M8.3,41V14.7l-3-2.3v32.4L32.9,38l-3-2.3
		L8.3,41z"/>
</g>
<g>
	<path class="st3" d="M67.1,12c-1-0.9-2.3-1.5-3.8-1.7c-0.5-0.1-1-0.1-1.5-0.1c-0.5,0-0.9,0-1.1,0h-6.1v20h6.1c0.2,0,0.6,0,1.1,0
		c0.5,0,1,0,1.5-0.1c1.5-0.2,2.8-0.8,3.8-1.7c1-0.9,1.8-2.1,2.3-3.5c0.5-1.4,0.8-3,0.8-4.7c0-1.7-0.3-3.3-0.8-4.7
		C68.8,14.1,68.1,12.9,67.1,12z M67.4,23.8c-0.3,1.1-0.9,2-1.6,2.8c-0.7,0.7-1.7,1.2-2.8,1.4c-0.3,0.1-0.7,0.1-1.1,0.1
		c-0.4,0-0.8,0-1.2,0h-4V12.1h4c0.4,0,0.8,0,1.2,0c0.4,0,0.8,0.1,1.1,0.1c1.2,0.2,2.1,0.7,2.8,1.4c0.7,0.7,1.2,1.7,1.6,2.8
		c0.3,1.1,0.5,2.4,0.5,3.7C67.9,21.5,67.8,22.7,67.4,23.8z"/>
	<path class="st3" d="M85.3,23.2h1.1c0-1.8-0.2-3.3-0.7-4.5c-0.5-1.3-1.3-2.2-2.4-2.9c-1-0.7-2.3-1-3.8-1c-1.4,0-2.7,0.3-3.8,1
		c-1.1,0.6-1.9,1.6-2.5,2.8c-0.6,1.2-0.9,2.6-0.9,4.2c0,1.6,0.3,3,0.9,4.1c0.6,1.2,1.4,2.1,2.5,2.7c1.1,0.6,2.3,1,3.8,1
		c1.5,0,2.8-0.4,3.9-1.1c1.2-0.7,2-1.7,2.6-3l-1.9-0.7c-0.5,0.9-1.1,1.6-1.9,2.1c-0.8,0.5-1.7,0.7-2.8,0.7c-1.6,0-2.8-0.5-3.6-1.6
		c-0.8-0.9-1.2-2.2-1.2-3.8h9.7H85.3z M75.9,18.2c0.9-1,2.1-1.6,3.7-1.6c1.5,0,2.7,0.5,3.5,1.5c0.7,0.8,1.1,2,1.2,3.4h-9.6
		C74.8,20.1,75.2,19,75.9,18.2z"/>
	<path class="st3" d="M101.5,23.2h1.1c0-1.8-0.2-3.3-0.7-4.5c-0.5-1.3-1.3-2.2-2.4-2.9c-1-0.7-2.3-1-3.8-1c-1.4,0-2.7,0.3-3.8,1
		c-1.1,0.6-1.9,1.6-2.5,2.8c-0.6,1.2-0.9,2.6-0.9,4.2c0,1.6,0.3,3,0.9,4.1c0.6,1.2,1.4,2.1,2.5,2.7c1.1,0.6,2.3,1,3.8,1
		c1.5,0,2.8-0.4,3.9-1.1c1.2-0.7,2-1.7,2.6-3l-1.9-0.7c-0.5,0.9-1.1,1.6-1.9,2.1c-0.8,0.5-1.7,0.7-2.8,0.7c-1.6,0-2.8-0.5-3.6-1.6
		c-0.8-0.9-1.2-2.2-1.2-3.8h9.7H101.5z M92.1,18.2c0.9-1,2.1-1.6,3.7-1.6c1.5,0,2.7,0.5,3.5,1.5c0.7,0.8,1.1,2,1.2,3.4h-9.6
		C91,20.1,91.4,19,92.1,18.2z"/>
	<path class="st3" d="M115.6,15.8c-1-0.7-2.2-1-3.5-1c-1.4,0-2.6,0.3-3.6,1c-0.6,0.4-1,0.9-1.4,1.5v-2.1h-1.8v21.7h2.1v-8.5
		c0.3,0.4,0.7,0.8,1.2,1.2c1,0.7,2.1,1,3.5,1c1.4,0,2.6-0.3,3.6-1c1-0.7,1.7-1.6,2.3-2.8c0.5-1.2,0.8-2.5,0.8-4c0-1.5-0.3-2.8-0.8-4
		C117.4,17.4,116.6,16.5,115.6,15.8z M116,25.7c-0.3,0.9-0.9,1.6-1.6,2.2c-0.7,0.5-1.6,0.8-2.6,0.8c-1.1,0-1.9-0.3-2.6-0.8
		c-0.7-0.5-1.2-1.2-1.6-2.1c-0.3-0.9-0.5-1.9-0.5-3.1c0-1.2,0.2-2.2,0.5-3.1c0.3-0.9,0.9-1.6,1.5-2.1c0.7-0.5,1.6-0.8,2.6-0.8
		c1.1,0,2,0.3,2.7,0.8c0.7,0.5,1.2,1.2,1.6,2.2c0.3,0.9,0.5,1.9,0.5,3.1C116.5,23.8,116.3,24.8,116,25.7z"/>
	<path class="st3" d="M135.3,20.1c-0.6-0.4-1.2-0.7-1.8-0.9c-0.6-0.2-1.2-0.4-1.7-0.5l-3.5-0.9c-0.4-0.1-0.8-0.3-1.2-0.4
		c-0.4-0.2-0.7-0.4-1-0.7s-0.4-0.6-0.4-1.1c0-0.5,0.2-0.9,0.5-1.2c0.3-0.3,0.8-0.6,1.3-0.8c0.5-0.2,1.1-0.3,1.7-0.2
		c0.6,0,1.2,0.1,1.7,0.4c0.6,0.2,1,0.6,1.4,1c0.4,0.4,0.7,1,0.8,1.6l4.1-0.7c-0.3-1.2-0.9-2.3-1.6-3.2c-0.7-0.9-1.6-1.5-2.7-2
		c-1.1-0.5-2.3-0.7-3.7-0.7c-1.4,0-2.6,0.2-3.7,0.6c-1.1,0.4-2,1.1-2.7,2c-0.7,0.9-1,2-1,3.3c0,1,0.2,1.7,0.5,2.4
		c0.3,0.6,0.7,1.1,1.2,1.5c0.5,0.4,1,0.7,1.5,0.9c0.5,0.2,1,0.4,1.4,0.5l5.2,1.5c0.4,0.1,0.7,0.3,1,0.4c0.3,0.1,0.5,0.3,0.6,0.5
		c0.1,0.2,0.2,0.3,0.3,0.5c0.1,0.2,0.1,0.4,0.1,0.6c0,0.6-0.2,1-0.6,1.4c-0.4,0.4-0.9,0.7-1.4,0.9c-0.6,0.2-1.2,0.3-1.8,0.3
		c-1.1,0-2.1-0.3-3-0.9c-0.9-0.6-1.4-1.5-1.7-2.7l-3.9,0.6c0.2,1.4,0.7,2.5,1.5,3.5c0.8,1,1.7,1.7,2.9,2.2c1.2,0.5,2.5,0.8,4,0.8
		c1,0,2-0.1,3-0.4c1-0.3,1.8-0.6,2.6-1.2c0.8-0.5,1.4-1.2,1.8-2c0.4-0.8,0.7-1.7,0.7-2.8c0-1-0.2-1.8-0.6-2.5
		C136.4,21,135.9,20.5,135.3,20.1z"/>
	<path class="st3" d="M150.5,16c-0.1-0.1-0.2-0.2-0.3-0.2c-1-0.7-2.2-1-3.6-1c-1.4,0-2.7,0.3-3.7,1c-1.1,0.7-1.9,1.6-2.5,2.8
		c-0.6,1.2-0.9,2.5-0.9,4.1c0,1.5,0.3,2.8,0.9,4c0.6,1.2,1.4,2.1,2.4,2.8c1,0.7,2.2,1,3.6,1c1.4,0,2.6-0.3,3.6-1v7.2h3.8V15.1h-3.3
		V16z M149.1,26.6c-0.5,0.4-1.2,0.6-2,0.6c-0.8,0-1.5-0.2-2-0.6c-0.5-0.4-0.9-1-1.2-1.6c-0.2-0.7-0.4-1.5-0.4-2.3
		c0-0.8,0.1-1.6,0.4-2.3c0.3-0.7,0.7-1.2,1.2-1.7c0.5-0.4,1.2-0.6,2.1-0.6c0.8,0,1.4,0.2,1.9,0.6c0.5,0.4,0.8,0.9,1.1,1.6
		c0.2,0.7,0.3,1.5,0.3,2.4c0,0.9-0.1,1.7-0.3,2.4C149.9,25.7,149.6,26.2,149.1,26.6z"/>
	<path class="st3" d="M167.7,22.8c0,0.9-0.1,1.7-0.3,2.2c-0.2,0.6-0.5,1-0.8,1.3c-0.3,0.3-0.7,0.5-1,0.6c-0.4,0.1-0.7,0.2-1,0.2
		c-0.8,0-1.4-0.2-1.9-0.5c-0.4-0.4-0.8-0.8-1-1.3c-0.2-0.5-0.3-1.1-0.3-1.6c0-0.5-0.1-1-0.1-1.3v-7.1h-3.8v8.4c0,0.2,0,0.6,0.1,1.2
		s0.1,1.2,0.3,1.8c0.2,0.7,0.5,1.3,0.9,1.9c0.4,0.6,1,1.1,1.7,1.5c0.7,0.4,1.7,0.6,2.9,0.6c1.5,0,2.7-0.3,3.7-1
		c0.5-0.3,0.9-0.6,1.2-1v1.6h3.3v-15h-3.8V22.8z"/>
	<path class="st3" d="M187.3,17.5c-0.5-1-1.3-1.7-2.3-2.1s-2.2-0.6-3.5-0.6c-1.8,0-3.2,0.4-4.3,1.2c-1,0.8-1.8,1.8-2.1,3l3.4,1.1
		c0.2-0.7,0.7-1.2,1.3-1.4c0.6-0.3,1.2-0.4,1.7-0.4c1,0,1.7,0.2,2.1,0.6c0.3,0.3,0.5,0.8,0.6,1.4c-0.6,0.1-1.2,0.2-1.8,0.3
		c-1,0.1-1.8,0.3-2.6,0.5c-0.8,0.2-1.4,0.3-2,0.5c-0.8,0.3-1.4,0.7-1.9,1.1c-0.5,0.4-0.8,0.9-1,1.5c-0.2,0.6-0.3,1.2-0.3,1.9
		c0,0.8,0.2,1.6,0.6,2.3c0.4,0.7,0.9,1.2,1.7,1.7c0.7,0.4,1.7,0.6,2.7,0.6c1.3,0,2.4-0.2,3.2-0.7c0.7-0.4,1.3-0.9,1.9-1.6v1.8h3.3
		V21c0-0.7,0-1.3-0.1-1.9C187.8,18.6,187.6,18,187.3,17.5z M183.8,25.6c-0.1,0.2-0.3,0.5-0.6,0.8c-0.3,0.3-0.7,0.6-1.1,0.8
		s-1.1,0.4-1.8,0.4c-0.4,0-0.8-0.1-1.1-0.2c-0.3-0.1-0.6-0.3-0.7-0.6c-0.2-0.2-0.3-0.5-0.3-0.9c0-0.2,0.1-0.5,0.2-0.7
		s0.3-0.4,0.5-0.6c0.2-0.2,0.5-0.3,0.9-0.5c0.3-0.1,0.7-0.2,1.1-0.3c0.4-0.1,1-0.2,1.7-0.3c0.4-0.1,1-0.2,1.6-0.3c0,0.3,0,0.6,0,0.9
		C184.1,24.7,184,25.2,183.8,25.6z"/>
	<path class="st3" d="M199,15.1c-0.5,0-0.9,0.1-1.3,0.2c-0.4,0.1-0.8,0.3-1.2,0.5c-0.5,0.3-0.9,0.6-1.2,1.1
		c-0.2,0.2-0.3,0.4-0.4,0.6v-2.4h-3.3v15h3.8v-7.7c0-0.6,0.1-1.1,0.2-1.5c0.2-0.5,0.4-0.9,0.7-1.2c0.3-0.3,0.7-0.6,1.1-0.8
		c0.4-0.2,0.9-0.3,1.5-0.4c0.6,0,1,0,1.5,0.1v-3.5C199.9,15.1,199.4,15.1,199,15.1z"/>
	<path class="st3" d="M214.6,23.7h1.8c0.2-1.8,0-3.4-0.6-4.7c-0.5-1.3-1.3-2.4-2.4-3.1c-1.1-0.7-2.4-1.1-4-1.1c-1.5,0-2.8,0.3-3.9,1
		c-1.1,0.7-2,1.6-2.7,2.8c-0.6,1.2-1,2.6-1,4.3c0,1.5,0.3,2.8,1,4c0.7,1.2,1.6,2.1,2.7,2.7c1.2,0.7,2.5,1,4.1,1c1.4,0,2.8-0.4,4-1.1
		c1.2-0.8,2.1-1.8,2.7-3.2l-3.8-1.1c-0.3,0.6-0.7,1.1-1.2,1.4c-0.5,0.3-1.2,0.5-1.9,0.5c-1.2,0-2.1-0.4-2.7-1.1
		c-0.4-0.6-0.7-1.3-0.8-2.2h6.8H214.6z M209.6,18c1.1,0,1.9,0.3,2.4,1c0.3,0.4,0.5,1.1,0.6,1.9H206c0.1-0.7,0.4-1.3,0.7-1.7
		C207.4,18.4,208.3,18,209.6,18z"/>
</g>
</svg>
