<svg width="145" height="145" viewBox="0 0 145 145" fill="none" xmlns="http://www.w3.org/2000/svg">
    <path d="M39.9043 24.1279V88.044L50.2283 85.434V95.584L103.704 82.418V8.69995L39.9043 24.1279ZM97.9043 77.8359L56.0283 88.1019V83.9839L93.4963 74.7619V74.7039H93.6123L93.4963 22.04L50.2283 32.77V79.4599L45.7043 80.5619V28.826L97.9043 16.124V77.8359ZM56.0283 37.12L87.7543 29.406V70.2959L56.0283 78.068V37.12Z"
          fill="url(#paint0_linear_118_9868)"/>
    <path d="M56.0283 77.894V83.868L82.4763 77.3719V71.3979L56.0283 77.894Z" fill="url(#paint1_linear_118_9868)"/>
    <path d="M56.0275 88.0441V37.0621L50.2275 32.6541V95.41L103.704 82.2441L97.9035 77.7781L56.0275 88.0441Z"
          fill="url(#paint2_linear_118_9868)"/>
    <path d="M19.3138 116.812C18.5018 116.116 17.5158 115.652 16.3558 115.478C16.0078 115.42 15.6018 115.42 15.1958 115.42C14.7898 115.42 14.4998 115.42 14.3258 115.42H9.56982V131.08H14.3258C14.4998 131.08 14.7318 131.08 15.1958 131.08C15.6018 131.08 16.0078 131.022 16.3558 131.022C17.5158 130.848 18.5598 130.442 19.3138 129.688C20.1258 128.992 20.7058 128.064 21.1118 126.962C21.5178 125.86 21.6918 124.642 21.6918 123.308C21.6918 121.974 21.5178 120.756 21.1118 119.654C20.7058 118.552 20.0678 117.508 19.3138 116.812ZM19.6038 126.092C19.3718 126.962 18.9078 127.716 18.3858 128.296C17.8058 128.876 17.1098 129.224 16.1818 129.398C15.9498 129.456 15.6598 129.456 15.3118 129.514C14.9638 129.514 14.6738 129.514 14.3258 129.514H11.2518V116.928H14.3258C14.6158 116.928 14.9058 116.928 15.2538 116.928C15.6018 116.928 15.8918 116.986 16.1238 117.044C17.0518 117.218 17.7478 117.566 18.3278 118.146C18.9078 118.726 19.3138 119.422 19.5458 120.292C19.7778 121.162 19.9518 122.148 19.9518 123.192C20.0098 124.236 19.8358 125.222 19.6038 126.092Z"
          fill="white"/>
    <path d="M33.5822 125.628H34.4522C34.5102 124.236 34.2782 123.076 33.8722 122.09C33.4662 121.104 32.8282 120.35 32.0162 119.828C31.2042 119.306 30.2182 119.016 29.0582 119.016C27.9562 119.016 26.9702 119.248 26.1002 119.77C25.2882 120.292 24.6502 120.988 24.1862 121.916C23.7222 122.844 23.4902 123.946 23.4902 125.222C23.4902 126.44 23.7222 127.542 24.1862 128.47C24.6502 129.398 25.2882 130.094 26.1582 130.616C26.9702 131.138 28.0142 131.37 29.1162 131.37C30.2762 131.37 31.2622 131.08 32.1902 130.5C33.1182 129.92 33.7562 129.166 34.2202 128.122L32.7122 127.542C32.3642 128.296 31.8422 128.818 31.2042 129.224C30.5662 129.63 29.8702 129.804 29.0002 129.804C27.7822 129.804 26.7962 129.398 26.1582 128.586C25.5782 127.832 25.2302 126.846 25.1722 125.57H32.7702H33.5822V125.628ZM26.2162 121.684C26.9122 120.872 27.8402 120.466 29.1162 120.466C30.3342 120.466 31.2622 120.872 31.8422 121.626C32.3642 122.264 32.6542 123.134 32.7702 124.294H25.2302C25.3462 123.192 25.6942 122.322 26.2162 121.684Z"
          fill="white"/>
    <path d="M46.2834 125.628H47.1534C47.2114 124.236 46.9794 123.076 46.5734 122.09C46.1674 121.104 45.5294 120.35 44.7174 119.828C43.9054 119.306 42.9194 119.016 41.7594 119.016C40.6574 119.016 39.6714 119.248 38.8014 119.77C37.9894 120.292 37.3514 120.988 36.8874 121.916C36.4234 122.844 36.1914 123.946 36.1914 125.222C36.1914 126.44 36.4234 127.542 36.8874 128.47C37.3514 129.398 37.9894 130.094 38.8594 130.616C39.6714 131.138 40.7154 131.37 41.8174 131.37C42.9774 131.37 43.9634 131.08 44.8914 130.5C45.8194 129.92 46.4574 129.166 46.9214 128.122L45.4134 127.542C45.0654 128.296 44.5434 128.818 43.9054 129.224C43.2674 129.63 42.5714 129.804 41.7014 129.804C40.4834 129.804 39.4974 129.398 38.8594 128.586C38.2794 127.832 37.9314 126.846 37.8734 125.57H45.4714H46.2834V125.628ZM38.9174 121.684C39.6134 120.872 40.5414 120.466 41.8174 120.466C43.0354 120.466 43.9634 120.872 44.5434 121.626C45.0654 122.264 45.3554 123.134 45.4714 124.294H37.9314C38.0474 123.192 38.3954 122.322 38.9174 121.684Z"
          fill="white"/>
    <path d="M57.3036 119.77C56.5496 119.248 55.6216 118.958 54.5196 118.958C53.4176 118.958 52.4896 119.248 51.7356 119.77C51.2716 120.06 50.9236 120.466 50.6336 120.93V119.306H49.1836V136.242H50.8076V129.63C51.0976 129.978 51.3876 130.268 51.7356 130.558C52.4896 131.08 53.4176 131.37 54.4616 131.37C55.5636 131.37 56.4916 131.08 57.2456 130.558C57.9996 130.036 58.6376 129.282 59.0436 128.354C59.4496 127.426 59.6816 126.382 59.6816 125.164C59.6816 124.004 59.4496 122.96 59.0436 122.032C58.6956 121.046 58.1156 120.35 57.3036 119.77ZM57.5936 127.542C57.3036 128.238 56.8976 128.818 56.3756 129.224C55.8536 129.63 55.1576 129.862 54.3456 129.862C53.5336 129.862 52.8376 129.688 52.2576 129.282C51.7356 128.876 51.3296 128.296 51.0396 127.6C50.7496 126.904 50.6336 126.092 50.6336 125.164C50.6336 124.236 50.7496 123.424 51.0396 122.728C51.3296 122.032 51.7356 121.452 52.2576 121.046C52.7796 120.64 53.4756 120.466 54.2876 120.466C55.0996 120.466 55.7956 120.698 56.3756 121.104C56.8976 121.51 57.3036 122.09 57.5936 122.786C57.8836 123.482 57.9996 124.294 57.9996 125.164C57.9996 126.034 57.8836 126.846 57.5936 127.542Z"
          fill="white"/>
    <path d="M72.7323 123.192C72.2683 122.902 71.8043 122.612 71.3403 122.438C70.8763 122.264 70.4123 122.09 70.0063 122.032L67.2803 121.278C66.9323 121.162 66.6423 121.104 66.2943 120.93C65.9463 120.756 65.7143 120.64 65.4823 120.408C65.2503 120.176 65.1923 119.944 65.1923 119.596C65.1923 119.248 65.3083 118.9 65.5983 118.668C65.8303 118.378 66.1783 118.204 66.5843 118.03C66.9903 117.914 67.4543 117.798 67.9183 117.856C68.3823 117.856 68.8463 117.972 69.2523 118.146C69.6583 118.32 70.0643 118.61 70.3543 118.958C70.6443 119.306 70.8763 119.712 70.9923 120.234L74.1823 119.712C73.9503 118.726 73.4863 117.914 72.9643 117.218C72.3843 116.522 71.6883 116 70.8183 115.652C69.9483 115.304 69.0203 115.13 67.9183 115.072C66.8743 115.072 65.8883 115.246 64.9603 115.594C64.0903 115.942 63.3943 116.464 62.8143 117.16C62.2923 117.856 62.0023 118.726 62.0023 119.77C62.0023 120.524 62.1183 121.162 62.3503 121.626C62.5823 122.09 62.9303 122.496 63.2783 122.786C63.6263 123.076 64.0323 123.308 64.4383 123.482C64.8443 123.656 65.1923 123.772 65.4823 123.83L69.5423 125.048C69.8323 125.164 70.1223 125.222 70.2963 125.338C70.4703 125.454 70.6443 125.57 70.7603 125.686C70.8763 125.802 70.9343 125.976 70.9923 126.092C71.0503 126.208 71.0503 126.382 71.0503 126.556C71.0503 127.02 70.8763 127.368 70.5863 127.658C70.2963 127.948 69.8903 128.18 69.4843 128.354C69.0203 128.528 68.5563 128.586 68.0923 128.586C67.2223 128.586 66.4683 128.354 65.7723 127.832C65.0763 127.368 64.6703 126.672 64.4383 125.744L61.3643 126.208C61.5383 127.252 61.8863 128.18 62.5243 128.934C63.1043 129.688 63.8583 130.268 64.8443 130.674C65.7723 131.08 66.8163 131.312 67.9763 131.312C68.7883 131.312 69.5423 131.196 70.2963 131.022C71.0503 130.848 71.7463 130.5 72.3263 130.094C72.9063 129.688 73.3703 129.166 73.7183 128.528C74.0663 127.89 74.2403 127.194 74.2403 126.324C74.2403 125.512 74.0663 124.874 73.7763 124.352C73.5443 123.888 73.1963 123.482 72.7323 123.192Z"
          fill="white"/>
    <path d="M84.6215 119.944C84.5635 119.886 84.5055 119.828 84.3895 119.77C83.6355 119.248 82.7075 118.958 81.5475 118.958C80.4455 118.958 79.4595 119.248 78.5895 119.77C77.7775 120.292 77.0815 121.046 76.6755 121.974C76.2115 122.902 75.9795 123.946 75.9795 125.164C75.9795 126.324 76.2115 127.368 76.6755 128.354C77.1395 129.282 77.7775 130.036 78.5895 130.558C79.4015 131.08 80.3295 131.37 81.4315 131.37C82.5335 131.37 83.4615 131.138 84.2155 130.616V136.242H87.1735V119.306H84.5635V119.944H84.6215ZM83.5195 128.296C83.1135 128.586 82.5915 128.76 81.9535 128.76C81.3155 128.76 80.7935 128.586 80.3875 128.296C79.9815 128.006 79.6915 127.542 79.4595 127.02C79.2855 126.498 79.1695 125.86 79.1695 125.222C79.1695 124.584 79.2855 123.946 79.4595 123.424C79.6335 122.902 79.9815 122.438 80.3875 122.148C80.7935 121.8 81.3735 121.684 82.0115 121.684C82.6495 121.684 83.1135 121.858 83.5195 122.148C83.9255 122.438 84.1575 122.844 84.3315 123.424C84.5055 124.004 84.6215 124.584 84.6215 125.28C84.6215 125.976 84.5055 126.614 84.3315 127.136C84.1575 127.658 83.9255 128.006 83.5195 128.296Z"
          fill="white"/>
    <path d="M98.0776 125.28C98.0776 125.976 98.0196 126.614 97.8456 127.02C97.6716 127.484 97.4976 127.774 97.2076 128.006C96.9756 128.238 96.6856 128.412 96.3956 128.47C96.1056 128.528 95.8156 128.586 95.5836 128.586C94.9456 128.586 94.4816 128.47 94.1336 128.18C93.7856 127.89 93.5536 127.542 93.3796 127.136C93.2056 126.73 93.1476 126.324 93.0896 125.86C93.0316 125.396 93.0316 125.106 93.0316 124.816V119.248H90.0156V125.86C90.0156 126.034 90.0156 126.382 90.0736 126.788C90.1316 127.194 90.1896 127.716 90.3056 128.18C90.4216 128.702 90.6536 129.224 91.0016 129.688C91.3496 130.152 91.7556 130.558 92.3356 130.848C92.9156 131.138 93.6696 131.312 94.5976 131.312C95.7576 131.312 96.6856 131.08 97.4396 130.558C97.7876 130.326 98.1356 130.036 98.3676 129.746V130.964H100.978V119.248H98.0196V125.28H98.0776Z"
          fill="white"/>
    <path d="M113.448 121.104C113.042 120.35 112.404 119.77 111.65 119.48C110.896 119.19 109.91 119.016 108.866 119.016C107.474 119.016 106.314 119.306 105.502 119.944C104.69 120.524 104.11 121.336 103.82 122.322L106.488 123.192C106.662 122.67 107.01 122.264 107.474 122.09C107.938 121.858 108.402 121.8 108.808 121.8C109.562 121.8 110.142 121.974 110.49 122.264C110.78 122.496 110.896 122.902 110.954 123.366C110.432 123.424 109.968 123.54 109.562 123.598C108.808 123.714 108.112 123.83 107.532 123.946C106.952 124.062 106.43 124.236 105.966 124.352C105.328 124.584 104.806 124.874 104.458 125.222C104.11 125.57 103.82 125.976 103.646 126.44C103.472 126.904 103.414 127.368 103.414 127.948C103.414 128.586 103.588 129.224 103.878 129.746C104.168 130.268 104.632 130.732 105.212 131.022C105.792 131.312 106.488 131.486 107.358 131.486C108.344 131.486 109.214 131.312 109.852 130.964C110.374 130.674 110.896 130.268 111.36 129.746V131.196H113.97V124.004C113.97 123.482 113.97 122.96 113.912 122.554C113.854 121.974 113.68 121.51 113.448 121.104ZM110.722 127.484C110.664 127.658 110.49 127.832 110.258 128.122C110.026 128.354 109.736 128.586 109.388 128.76C109.04 128.934 108.576 129.05 107.996 129.05C107.648 129.05 107.358 128.992 107.126 128.876C106.894 128.76 106.662 128.644 106.546 128.412C106.43 128.18 106.372 128.006 106.372 127.716C106.372 127.542 106.43 127.368 106.488 127.194C106.546 127.02 106.72 126.904 106.894 126.73C107.068 126.614 107.3 126.498 107.59 126.382C107.822 126.266 108.112 126.208 108.46 126.092C108.808 126.034 109.214 125.918 109.794 125.802C110.142 125.744 110.548 125.686 111.07 125.57C111.07 125.802 111.07 125.976 111.012 126.266C110.954 126.788 110.838 127.136 110.722 127.484Z"
          fill="white"/>
    <path d="M122.612 119.248C122.264 119.248 121.916 119.306 121.568 119.422C121.22 119.538 120.93 119.654 120.64 119.828C120.292 120.06 119.944 120.292 119.712 120.64C119.596 120.814 119.48 120.988 119.364 121.162V119.248H116.754V130.964H119.712V124.99C119.712 124.526 119.77 124.12 119.886 123.772C120.002 123.424 120.176 123.076 120.408 122.844C120.64 122.554 120.93 122.38 121.278 122.206C121.626 122.032 122.032 121.916 122.438 121.916C122.844 121.858 123.25 121.916 123.598 122.032V119.248C123.308 119.248 122.96 119.248 122.612 119.248Z"
          fill="white"/>
    <path d="M134.85 125.976H136.3C136.416 124.584 136.3 123.308 135.894 122.264C135.488 121.22 134.85 120.408 133.98 119.828C133.11 119.248 132.066 118.958 130.848 118.958C129.688 118.958 128.644 119.248 127.774 119.77C126.904 120.292 126.208 121.046 125.686 121.974C125.164 122.902 124.932 124.062 124.932 125.338C124.932 126.498 125.164 127.542 125.686 128.47C126.208 129.398 126.904 130.094 127.832 130.616C128.76 131.138 129.804 131.37 131.022 131.37C132.124 131.37 133.168 131.08 134.154 130.5C135.082 129.92 135.778 129.05 136.242 128.006L133.284 127.136C133.052 127.6 132.762 128.006 132.356 128.238C131.95 128.47 131.428 128.644 130.848 128.644C129.92 128.644 129.224 128.354 128.76 127.774C128.412 127.31 128.18 126.788 128.122 126.034H133.458H134.85V125.976ZM130.906 121.51C131.776 121.51 132.414 121.8 132.762 122.322C132.994 122.67 133.168 123.192 133.284 123.772H128.122C128.238 123.25 128.412 122.786 128.702 122.438C129.166 121.858 129.92 121.51 130.906 121.51Z"
          fill="white"/>
    <defs>
        <linearGradient id="paint0_linear_118_9868" x1="94.5217" y1="87.7195" x2="53.3313" y2="16.3758"
                        gradientUnits="userSpaceOnUse">
            <stop stop-color="#CD45FF"/>
            <stop offset="1" stop-color="#6753FF"/>
        </linearGradient>
        <linearGradient id="paint1_linear_118_9868" x1="38.4742" y1="77.6329" x2="102.294" y2="77.6329"
                        gradientUnits="userSpaceOnUse">
            <stop stop-color="#CD45FF"/>
            <stop offset="0.716" stop-color="#CD45FF" stop-opacity="0"/>
        </linearGradient>
        <linearGradient id="paint2_linear_118_9868" x1="80.8375" y1="95.5334" x2="45.9953" y2="35.1852"
                        gradientUnits="userSpaceOnUse">
            <stop stop-color="#CD45FF" stop-opacity="0"/>
            <stop offset="0.266" stop-color="#6753FF"/>
            <stop offset="0.654" stop-color="#6753FF"/>
            <stop offset="1" stop-color="#CD45FF" stop-opacity="0"/>
        </linearGradient>
    </defs>
</svg>
