<?xml version="1.0" encoding="utf-8"?>
<!-- Generator: Adobe Illustrator 26.2.1, SVG Export Plug-In . SVG Version: 6.00 Build 0)  -->
<svg version="1.1" id="Calque_1" xmlns="http://www.w3.org/2000/svg" xmlns:xlink="http://www.w3.org/1999/xlink" x="0px" y="0px"
	 viewBox="0 0 250 250" style="enable-background:new 0 0 250 250;" xml:space="preserve">
<style type="text/css">
	.st0{fill:url(#SVGID_1_);}
	.st1{fill:url(#SVGID_00000017488845962368338440000013651669999963979671_);}
	.st2{fill:url(#SVGID_00000175280256926009258910000014184794308416711356_);}
	.st3{fill:#120641;}
</style>
<linearGradient id="SVGID_1_" gradientUnits="userSpaceOnUse" x1="335.4679" y1="-195.3508" x2="264.45" y2="-72.3445" gradientTransform="matrix(1 0 0 -1 -172.5 -44.1102)">
	<stop  offset="0" style="stop-color:#CD45FF"/>
	<stop  offset="1" style="stop-color:#6753FF"/>
</linearGradient>
<path class="st0" d="M68.8,41.6v110.2l17.8-4.5v17.5l92.2-22.7V15L68.8,41.6z M168.8,134.2l-72.2,17.7v-7.1l64.6-15.9v-0.1h0.2
	L161.2,38L86.6,56.5V137l-7.8,1.9V49.7l90-21.9L168.8,134.2L168.8,134.2z M96.6,64l54.7-13.3v70.5l-54.7,13.4
	C96.6,134.6,96.6,64,96.6,64z"/>
<linearGradient id="SVGID_00000059992579612428421750000009082434263994064521_" gradientUnits="userSpaceOnUse" x1="238.8343" y1="-177.9602" x2="348.8685" y2="-177.9602" gradientTransform="matrix(1 0 0 -1 -172.5 -44.1102)">
	<stop  offset="0" style="stop-color:#CD45FF"/>
	<stop  offset="0.716" style="stop-color:#CD45FF;stop-opacity:0"/>
</linearGradient>
<path style="fill:url(#SVGID_00000059992579612428421750000009082434263994064521_);" d="M96.6,134.3v10.3l45.6-11.2v-10.3
	L96.6,134.3z"/>
<linearGradient id="SVGID_00000123442868990336444440000011992315496882234240_" gradientUnits="userSpaceOnUse" x1="311.8758" y1="-208.823" x2="251.803" y2="-104.7742" gradientTransform="matrix(1 0 0 -1 -172.5 -44.1102)">
	<stop  offset="0" style="stop-color:#CD45FF;stop-opacity:0"/>
	<stop  offset="0.266" style="stop-color:#6753FF"/>
	<stop  offset="0.654" style="stop-color:#6753FF"/>
	<stop  offset="1" style="stop-color:#CD45FF;stop-opacity:0"/>
</linearGradient>
<path style="fill:url(#SVGID_00000123442868990336444440000011992315496882234240_);" d="M96.6,151.8V63.9l-10-7.6v108.2l92.2-22.7
	l-10-7.7L96.6,151.8z"/>
<g>
	<path class="st3" d="M33.3,201.4c-1.4-1.2-3.1-2-5.1-2.3c-0.6-0.1-1.3-0.1-2-0.1s-1.2,0-1.5,0h-8.2v27h8.2c0.3,0,0.7,0,1.5,0
		c0.7,0,1.4-0.1,2-0.1c2-0.3,3.8-1,5.1-2.3c1.4-1.2,2.4-2.8,3.1-4.7s1-4,1-6.3c0-2.3-0.3-4.4-1-6.3S34.6,202.6,33.3,201.4z
		 M33.8,217.4c-0.4,1.5-1.2,2.8-2.1,3.8c-1,1-2.2,1.6-3.8,1.9c-0.4,0.1-0.9,0.1-1.5,0.2c-0.6,0-1.1,0-1.7,0h-5.3v-21.7h5.3
		c0.5,0,1,0,1.6,0s1.1,0.1,1.5,0.2c1.6,0.3,2.8,0.9,3.8,1.9c1,1,1.7,2.2,2.1,3.7c0.4,1.5,0.7,3.2,0.7,5
		C34.5,214.2,34.2,215.9,33.8,217.4z"/>
	<path class="st3" d="M57.9,216.6h1.5c0.1-2.4-0.3-4.4-1-6.1c-0.7-1.7-1.8-3-3.2-3.9c-1.4-0.9-3.1-1.4-5.1-1.4
		c-1.9,0-3.6,0.4-5.1,1.3c-1.4,0.9-2.5,2.1-3.3,3.7c-0.8,1.6-1.2,3.5-1.2,5.7c0,2.1,0.4,4,1.2,5.6c0.8,1.6,1.9,2.8,3.4,3.7
		c1.4,0.9,3.2,1.3,5.1,1.3c2,0,3.7-0.5,5.3-1.5c1.6-1,2.7-2.3,3.5-4.1l-2.6-1c-0.6,1.3-1.5,2.2-2.6,2.9c-1.1,0.7-2.3,1-3.8,1
		c-2.1,0-3.8-0.7-4.9-2.1c-1-1.3-1.6-3-1.7-5.2h13.1H57.9z M45.2,209.8c1.2-1.4,2.8-2.1,5-2.1c2.1,0,3.7,0.7,4.7,2
		c0.9,1.1,1.4,2.6,1.6,4.6h-13C43.7,212.4,44.3,210.9,45.2,209.8z"/>
	<path class="st3" d="M79.8,216.6h1.5c0.1-2.4-0.3-4.4-1-6.1c-0.7-1.7-1.8-3-3.2-3.9c-1.4-0.9-3.1-1.4-5.1-1.4
		c-1.9,0-3.6,0.4-5.1,1.3c-1.4,0.9-2.5,2.1-3.3,3.7c-0.8,1.6-1.2,3.5-1.2,5.7c0,2.1,0.4,4,1.2,5.6c0.8,1.6,1.9,2.8,3.4,3.7
		c1.4,0.9,3.2,1.3,5.1,1.3c2,0,3.7-0.5,5.3-1.5c1.6-1,2.7-2.3,3.5-4.1l-2.6-1c-0.6,1.3-1.5,2.2-2.6,2.9c-1.1,0.7-2.3,1-3.8,1
		c-2.1,0-3.8-0.7-4.9-2.1c-1-1.3-1.6-3-1.7-5.2h13.1H79.8z M67.1,209.8c1.2-1.4,2.8-2.1,5-2.1c2.1,0,3.7,0.7,4.7,2
		c0.9,1.1,1.4,2.6,1.6,4.6h-13C65.6,212.4,66.2,210.9,67.1,209.8z"/>
	<path class="st3" d="M98.8,206.5c-1.3-0.9-2.9-1.4-4.8-1.4c-1.9,0-3.5,0.5-4.8,1.4c-0.8,0.5-1.4,1.2-1.9,2v-2.8h-2.5v29.2h2.8
		v-11.4c0.5,0.6,1,1.1,1.6,1.6c1.3,0.9,2.9,1.4,4.7,1.4c1.9,0,3.5-0.5,4.8-1.4c1.3-0.9,2.4-2.2,3.1-3.8c0.7-1.6,1.1-3.4,1.1-5.5
		c0-2-0.4-3.8-1.1-5.4C101.2,208.7,100.2,207.5,98.8,206.5z M99.3,219.9c-0.5,1.2-1.2,2.2-2.1,2.9c-0.9,0.7-2.1,1.1-3.5,1.1
		c-1.4,0-2.6-0.3-3.6-1c-0.9-0.7-1.6-1.7-2.1-2.9c-0.5-1.2-0.7-2.6-0.7-4.2c0-1.6,0.2-3,0.7-4.2c0.5-1.2,1.2-2.2,2.1-2.9
		c0.9-0.7,2.1-1,3.5-1c1.4,0,2.6,0.4,3.6,1.1c0.9,0.7,1.6,1.7,2.1,2.9c0.5,1.2,0.7,2.6,0.7,4.1C100,217.3,99.8,218.7,99.3,219.9z"/>
	<path class="st3" d="M125.4,212.4c-0.8-0.5-1.6-1-2.4-1.3c-0.8-0.3-1.6-0.6-2.3-0.7l-4.7-1.3c-0.6-0.2-1.1-0.3-1.7-0.6
		s-1-0.5-1.4-0.9s-0.5-0.8-0.5-1.4c0-0.6,0.2-1.2,0.7-1.6c0.4-0.5,1-0.8,1.7-1.1c0.7-0.2,1.5-0.4,2.3-0.3c0.8,0,1.6,0.2,2.3,0.5
		c0.7,0.3,1.4,0.8,1.9,1.4s0.9,1.3,1.1,2.2l5.5-0.9c-0.4-1.7-1.2-3.1-2.1-4.3c-1-1.2-2.2-2.1-3.7-2.7c-1.5-0.6-3.1-0.9-5-1
		c-1.8,0-3.5,0.3-5.1,0.9c-1.5,0.6-2.7,1.5-3.7,2.7c-0.9,1.2-1.4,2.7-1.4,4.5c0,1.3,0.2,2.4,0.6,3.2c0.4,0.8,1,1.5,1.6,2
		c0.6,0.5,1.3,0.9,2,1.2s1.3,0.5,1.8,0.6l7,2.1c0.5,0.2,1,0.3,1.3,0.5c0.3,0.2,0.6,0.4,0.8,0.6s0.3,0.5,0.4,0.7s0.1,0.5,0.1,0.8
		c0,0.8-0.3,1.4-0.8,1.9c-0.5,0.5-1.2,0.9-1.9,1.2c-0.8,0.3-1.6,0.4-2.4,0.4c-1.5,0-2.8-0.4-4-1.3c-1.2-0.8-1.9-2-2.3-3.6l-5.3,0.8
		c0.3,1.8,0.9,3.4,2,4.7c1,1.3,2.3,2.3,4,3c1.6,0.7,3.4,1.1,5.4,1.1c1.4,0,2.7-0.2,4-0.5s2.5-0.9,3.5-1.6s1.8-1.6,2.4-2.7
		c0.6-1.1,0.9-2.3,0.9-3.8c0-1.4-0.3-2.5-0.8-3.4C126.8,213.6,126.2,212.9,125.4,212.4z"/>
	<path class="st3" d="M145.9,206.8c-0.1-0.1-0.2-0.2-0.4-0.3c-1.3-0.9-2.9-1.4-4.9-1.4c-1.9,0-3.6,0.5-5.1,1.4
		c-1.4,0.9-2.6,2.2-3.3,3.8c-0.8,1.6-1.2,3.4-1.2,5.5c0,2,0.4,3.8,1.2,5.5c0.8,1.6,1.9,2.9,3.3,3.8c1.4,0.9,3,1.4,4.9,1.4
		c1.9,0,3.5-0.4,4.8-1.3v9.7h5.1v-29.2h-4.5V206.8z M144,221.2c-0.7,0.5-1.6,0.8-2.7,0.8c-1.1,0-2-0.3-2.7-0.8
		c-0.7-0.5-1.2-1.3-1.6-2.2c-0.3-0.9-0.5-2-0.5-3.1c0-1.1,0.2-2.2,0.5-3.1c0.3-0.9,0.9-1.7,1.6-2.2c0.7-0.6,1.7-0.8,2.8-0.8
		c1.1,0,1.9,0.3,2.6,0.8c0.7,0.5,1.1,1.2,1.4,2.2s0.5,2,0.5,3.2c0,1.2-0.2,2.3-0.5,3.2S144.7,220.7,144,221.2z"/>
	<path class="st3" d="M169.1,216c0,1.2-0.1,2.3-0.4,3c-0.3,0.8-0.6,1.3-1.1,1.7c-0.4,0.4-0.9,0.7-1.4,0.8c-0.5,0.1-1,0.2-1.4,0.2
		c-1.1,0-1.9-0.2-2.5-0.7c-0.6-0.5-1-1.1-1.3-1.8s-0.4-1.4-0.5-2.2s-0.1-1.3-0.1-1.8v-9.6h-5.2V217c0,0.3,0,0.9,0.1,1.6
		s0.2,1.6,0.4,2.4c0.2,0.9,0.6,1.8,1.2,2.6c0.6,0.8,1.3,1.5,2.3,2s2.3,0.8,3.9,0.8c2,0,3.6-0.4,4.9-1.3c0.6-0.4,1.2-0.9,1.6-1.4v2.1
		h4.5v-20.2h-5.1V216z"/>
	<path class="st3" d="M195.6,208.8c-0.7-1.3-1.8-2.3-3.1-2.8s-3-0.8-4.8-0.8c-2.4,0-4.4,0.5-5.8,1.6c-1.4,1-2.4,2.4-2.9,4.1l4.6,1.5
		c0.3-0.9,0.9-1.6,1.7-1.9c0.8-0.4,1.6-0.5,2.3-0.5c1.3,0,2.3,0.3,2.9,0.8c0.5,0.4,0.7,1.1,0.8,1.9c-0.9,0.1-1.7,0.3-2.4,0.4
		c-1.3,0.2-2.5,0.4-3.5,0.6c-1,0.2-1.9,0.5-2.7,0.7c-1.1,0.4-2,0.9-2.6,1.5c-0.6,0.6-1.1,1.3-1.4,2.1c-0.3,0.8-0.4,1.6-0.4,2.6
		c0,1.1,0.3,2.2,0.8,3.1c0.5,0.9,1.3,1.7,2.3,2.2s2.2,0.8,3.7,0.8c1.7,0,3.2-0.3,4.3-0.9c0.9-0.5,1.8-1.2,2.6-2.1v2.5h4.5v-12.4
		c0-0.9,0-1.8-0.1-2.5C196.3,210.3,196,209.5,195.6,208.8z M190.9,219.8c-0.1,0.3-0.4,0.6-0.8,1.1c-0.4,0.4-0.9,0.8-1.5,1.1
		s-1.4,0.5-2.4,0.5c-0.6,0-1.1-0.1-1.5-0.3c-0.4-0.2-0.8-0.4-1-0.8s-0.3-0.7-0.3-1.2c0-0.3,0.1-0.6,0.2-0.9s0.4-0.5,0.7-0.8
		c0.3-0.2,0.7-0.4,1.2-0.6c0.4-0.2,0.9-0.3,1.5-0.5c0.6-0.1,1.3-0.3,2.3-0.5c0.6-0.1,1.3-0.2,2.2-0.4c0,0.4,0,0.7-0.1,1.2
		C191.3,218.6,191.1,219.2,190.9,219.8z"/>
	<path class="st3" d="M211.4,205.6c-0.6,0-1.2,0.1-1.8,0.3c-0.6,0.2-1.1,0.4-1.6,0.7c-0.6,0.4-1.2,0.8-1.6,1.4
		c-0.2,0.3-0.4,0.6-0.6,0.9v-3.3h-4.5v20.2h5.1v-10.3c0-0.8,0.1-1.5,0.3-2.1c0.2-0.6,0.5-1.2,0.9-1.6c0.4-0.5,0.9-0.8,1.5-1.1
		c0.6-0.3,1.3-0.5,2-0.5c0.7-0.1,1.4,0,2,0.2v-4.8C212.6,205.6,212,205.6,211.4,205.6z"/>
	<path class="st3" d="M232.5,217.2h2.5c0.2-2.4,0-4.6-0.7-6.4c-0.7-1.8-1.8-3.2-3.3-4.2c-1.5-1-3.3-1.5-5.4-1.5
		c-2,0-3.8,0.5-5.3,1.4c-1.5,0.9-2.7,2.2-3.6,3.8c-0.9,1.6-1.3,3.6-1.3,5.8c0,2,0.4,3.8,1.3,5.4c0.9,1.6,2.1,2.8,3.7,3.7
		c1.6,0.9,3.4,1.3,5.5,1.3c1.9,0,3.7-0.5,5.4-1.5c1.6-1,2.8-2.5,3.6-4.3l-5.1-1.5c-0.4,0.8-0.9,1.5-1.6,1.9
		c-0.7,0.4-1.6,0.7-2.6,0.7c-1.6,0-2.8-0.5-3.6-1.5c-0.6-0.8-1-1.7-1.1-3h9.2H232.5z M225.7,209.5c1.5,0,2.6,0.5,3.2,1.4
		c0.4,0.6,0.7,1.5,0.9,2.5h-8.9c0.2-0.9,0.5-1.7,1-2.3C222.7,210.1,224,209.5,225.7,209.5z"/>
</g>
</svg>
